<svg width="36" height="33" viewBox="0 0 36 33" fill="none" xmlns="http://www.w3.org/2000/svg">
<path fill-rule="evenodd" clip-rule="evenodd" d="M16.3828 0.0663825C11.0917 0.592751 6.30316 3.74852 3.708 8.41951C2.72292 10.1924 1.98436 12.503 1.7891 14.4225L1.74073 14.898L1.26394 14.44C0.882633 14.0737 0.742852 13.9819 0.566156 13.9819C0.267398 13.9819 0 14.2518 0 14.5532C0 14.7532 0.123258 14.9038 1.00462 15.7809C1.90603 16.6779 2.034 16.7806 2.25 16.7806C2.466 16.7806 2.59397 16.6779 3.49538 15.7809C4.37674 14.9038 4.5 14.7532 4.5 14.5532C4.5 14.2526 4.23253 13.9819 3.93546 13.9819C3.76446 13.9819 3.62278 14.0705 3.29259 14.3839L2.86903 14.786L2.91488 14.4364C3.41416 10.6278 5.31682 7.10306 8.15548 4.72772C12.4838 1.1059 18.3194 0.130403 23.5418 2.15569C27.872 3.83493 31.273 7.51783 32.5568 11.9178C32.775 12.6659 32.9198 12.8624 33.2523 12.8624C33.4796 12.8624 33.731 12.6471 33.7936 12.399C33.8247 12.2757 33.7212 11.8654 33.4635 11.091C31.4336 4.9887 26.0087 0.699243 19.5171 0.0635139C18.6414 -0.0222668 17.2607 -0.0210074 16.3828 0.0663825ZM9.22331 11.3056C9.14421 11.373 8.68191 12.0869 8.19598 12.8923L7.3125 14.3564V20.9348V27.5131L7.05959 27.272C6.67568 26.9061 5.71901 25.7054 5.27266 25.0295C4.50759 23.8709 3.83013 22.4097 3.4432 21.0836C3.22235 20.3265 3.08095 20.1391 2.73101 20.1391C2.48245 20.1391 2.17969 20.4329 2.17969 20.674C2.17969 20.7646 2.34091 21.3268 2.53793 21.9232C3.82816 25.8291 6.62681 29.1248 10.3378 31.1084C14.6464 33.4116 19.8975 33.6236 24.4536 31.6782C27.3044 30.4609 29.8408 28.3445 31.6164 25.7015C32.9734 23.6817 34.0078 20.8302 34.2052 18.5648C34.2287 18.2954 34.2645 17.9696 34.2847 17.8408L34.3214 17.6066L34.7679 18.0332C35.1204 18.37 35.2607 18.4598 35.4346 18.4598C35.7326 18.4598 36 18.1895 36 17.8885C36 17.6885 35.8767 17.5379 34.9954 16.6608C33.6708 15.3428 33.8292 15.3428 32.5046 16.6608C31.6233 17.5379 31.5 17.6885 31.5 17.8885C31.5 18.1895 31.7674 18.4598 32.0654 18.4598C32.2398 18.4598 32.3806 18.3691 32.742 18.0237C33.1208 17.6618 33.1921 17.6172 33.1618 17.7613C33.1417 17.8569 33.1052 18.1712 33.0808 18.4598C32.9213 20.3497 32.0537 22.8822 30.9724 24.6142C30.4755 25.41 29.6921 26.4445 29.1156 27.0659L28.6936 27.5207L28.6906 20.9213L28.6875 14.3219L28.4872 14.0295C28.3769 13.8686 27.964 13.1941 27.5695 12.5306C27.175 11.8671 26.7927 11.2925 26.7198 11.2537C26.6329 11.2074 23.628 11.1832 17.9773 11.1832C9.87884 11.1832 9.35859 11.1904 9.22331 11.3056ZM15.6068 12.3901C15.6055 12.4383 15.5343 12.8082 15.4486 13.2122L15.293 13.9469L12.0786 13.9651L8.86423 13.9833L9.37132 13.143L9.87848 12.3027H12.7439C14.9908 12.3027 15.6088 12.3215 15.6068 12.3901ZM19.3629 12.9499C19.4314 13.3059 19.5048 13.6837 19.5259 13.7895L19.5645 13.9819H18H16.4355L16.4741 13.7895C16.4952 13.6837 16.5686 13.3059 16.6371 12.9499L16.7617 12.3027H18H19.2383L19.3629 12.9499ZM26.6287 13.143L27.1358 13.9833L23.9214 13.9651L20.707 13.9469L20.5514 13.2122C20.4657 12.8082 20.3945 12.4383 20.3932 12.3901C20.3912 12.3215 21.0092 12.3027 23.2561 12.3027H26.1215L26.6287 13.143ZM15.1875 16.6088C15.1875 18.1162 15.1875 18.1164 15.3601 18.2881C15.455 18.3825 15.6053 18.4591 15.6941 18.4582C15.7828 18.4572 16.338 18.3348 16.9277 18.1862L18 17.9158L19.0723 18.1862C19.662 18.3348 20.2172 18.4572 20.3059 18.4582C20.3947 18.4591 20.545 18.3825 20.6399 18.2881C20.8125 18.1164 20.8125 18.1162 20.8125 16.6088V15.1014H24.1875H27.5625V21.8116V28.522L27.0879 28.872C24.831 30.5368 22.2046 31.5466 19.4164 31.8218C15.762 32.1824 11.8924 31.1069 8.94727 28.9119L8.4375 28.5319V21.8166V15.1014H11.8125H15.1875V16.6088ZM19.6875 16.1441V17.1868L18.8438 16.9706L18 16.7545L17.1562 16.9706L16.3125 17.1868V16.1441V15.1014H18H19.6875V16.1441ZM12.5476 21.9901C12.4388 22.0983 12.375 22.2417 12.375 22.378C12.375 22.5143 12.4388 22.6578 12.5476 22.766L12.7202 22.9378H18H23.2798L23.4524 22.766C23.6808 22.5388 23.6808 22.2173 23.4524 21.9901L23.2798 21.8183H18H12.7202L12.5476 21.9901ZM12.5476 24.229C12.4388 24.3373 12.375 24.4807 12.375 24.617C12.375 24.7533 12.4388 24.8967 12.5476 25.005L12.7202 25.1768H18H23.2798L23.4524 25.005C23.6808 24.7778 23.6808 24.4562 23.4524 24.229L23.2798 24.0573H18H12.7202L12.5476 24.229ZM15.3601 26.468C15.2513 26.5763 15.1875 26.7197 15.1875 26.856C15.1875 26.9923 15.2513 27.1357 15.3601 27.244L15.5327 27.4157H18H20.4673L20.6399 27.244C20.7487 27.1357 20.8125 26.9923 20.8125 26.856C20.8125 26.7197 20.7487 26.5763 20.6399 26.468L20.4673 26.2962H18H15.5327L15.3601 26.468Z" fill="white"/>
</svg>
