<svg width="25" height="25" viewBox="0 0 25 25" fill="none" xmlns="http://www.w3.org/2000/svg">
<path fill-rule="evenodd" clip-rule="evenodd" d="M0.498776 0.115352C0.230601 0.25379 0 0.607921 0 0.881416C0 1.11579 0.231598 1.50594 0.443356 1.62831C0.60496 1.72169 0.768337 1.74502 1.4224 1.76813C2.18747 1.79512 2.21357 1.80016 2.44766 1.96454C2.57978 2.05736 2.74138 2.23194 2.80683 2.35247C2.87229 2.47307 3.15515 3.46951 3.4354 4.56682C5.33064 11.9878 5.93599 14.2635 6.10125 14.5894C6.34022 15.0606 6.59038 15.3885 7.00132 15.7692C7.59708 16.3211 8.27913 16.6524 9.08881 16.7832C9.32041 16.8206 11.1509 16.8413 14.2151 16.8411C18.6455 16.8408 19.0163 16.8335 19.48 16.7377C20.9109 16.4419 22.153 15.3731 22.6116 14.043C22.6746 13.8605 23.1758 11.8406 23.7254 9.55458C24.442 6.57411 24.7173 5.3387 24.6982 5.18824C24.6651 4.92627 24.4504 4.63836 24.1992 4.51921C24.0239 4.43603 23.2071 4.42827 14.6123 4.42827C5.71259 4.42827 5.21531 4.42317 5.1871 4.33128C5.1707 4.27791 5.02107 3.70682 4.85459 3.06212C4.68805 2.41748 4.49043 1.76907 4.41533 1.62121C4.07688 0.955124 3.44216 0.408632 2.71556 0.157637C2.42582 0.0575493 2.19811 0.0286202 1.55175 0.00988843C0.795104 -0.0120023 0.733589 -0.00585074 0.498776 0.115352ZM22.6957 6.27097C22.6831 6.3091 22.2945 7.92386 21.8319 9.85938C21.1239 12.8227 20.9602 13.4378 20.796 13.754C20.4699 14.3816 19.8326 14.866 19.1376 15.0145C18.9626 15.0519 17.1974 15.0664 14.0211 15.0564L9.17194 15.0411L8.85133 14.9117C8.44932 14.7494 7.91131 14.2608 7.72083 13.8849C7.63632 13.7181 7.20499 12.1531 6.64281 9.97355C6.12741 7.97523 5.69458 6.3091 5.681 6.27097C5.66127 6.21571 7.38626 6.20169 14.1874 6.20169C20.9876 6.20169 22.7139 6.21577 22.6957 6.27097ZM9.55987 18.7355C9.40747 18.7642 9.07473 18.8879 8.82052 19.0105C7.62656 19.5861 6.93692 20.8939 7.13965 22.198C7.39707 23.8537 8.95624 25.0155 10.6035 24.7789C12.2667 24.54 13.4556 22.9446 13.1993 21.2958C12.9312 19.5713 11.2828 18.4117 9.55987 18.7355ZM17.4725 18.7548C16.2809 19.0138 15.2941 20.0858 15.1179 21.3129C14.8804 22.9662 16.0369 24.5184 17.6988 24.7767C19.3525 25.0338 20.9377 23.8496 21.1819 22.1749C21.4882 20.0732 19.5652 18.3001 17.4725 18.7548ZM10.696 20.56C11.0312 20.712 11.1844 20.8625 11.3401 21.1927C11.8598 22.2948 10.7174 23.4372 9.61529 22.9175C9.2851 22.7618 9.13458 22.6085 8.98262 22.2734C8.77735 21.8206 8.87727 21.2088 9.21694 20.839C9.552 20.4741 10.2261 20.347 10.696 20.56ZM18.6764 20.56C19.0116 20.712 19.1648 20.8625 19.3205 21.1927C19.7238 22.0479 19.1002 23.0468 18.162 23.0487C17.2209 23.0506 16.5779 22.07 16.963 21.2204C17.115 20.8852 17.2655 20.732 17.5957 20.5763C17.9438 20.4122 18.3371 20.4062 18.6764 20.56Z" fill="#636365"/>
</svg>
