<svg width="13" height="13" viewBox="0 0 13 13" fill="none" xmlns="http://www.w3.org/2000/svg">
<path d="M1.625 0.8125C1.40951 0.8125 1.20285 0.898102 1.05048 1.05048C0.898102 1.20285 0.8125 1.40951 0.8125 1.625V8.125C0.8125 8.34049 0.898102 8.54715 1.05048 8.69952C1.20285 8.8519 1.40951 8.9375 1.625 8.9375H9.41363C9.84457 8.93759 10.2578 9.10886 10.5625 9.41363L12.1875 11.0386V1.625C12.1875 1.40951 12.1019 1.20285 11.9495 1.05048C11.7972 0.898102 11.5905 0.8125 11.375 0.8125H1.625ZM11.375 0C11.806 0 12.2193 0.171205 12.524 0.475951C12.8288 0.780698 13 1.19402 13 1.625V12.0193C13 12.0997 12.9761 12.1783 12.9314 12.2451C12.8867 12.3119 12.8232 12.364 12.7489 12.3947C12.6746 12.4254 12.5929 12.4334 12.5141 12.4176C12.4353 12.4018 12.3629 12.363 12.3061 12.3061L9.98806 9.98806C9.83572 9.83568 9.6291 9.75005 9.41363 9.75H1.625C1.19402 9.75 0.780698 9.57879 0.475951 9.27405C0.171205 8.9693 0 8.55598 0 8.125V1.625C0 1.19402 0.171205 0.780698 0.475951 0.475951C0.780698 0.171205 1.19402 0 1.625 0L11.375 0Z" fill="#636365"/>
<path d="M2.4375 2.84375C2.4375 2.73601 2.4803 2.63267 2.55649 2.55649C2.63267 2.4803 2.73601 2.4375 2.84375 2.4375H10.1562C10.264 2.4375 10.3673 2.4803 10.4435 2.55649C10.5197 2.63267 10.5625 2.73601 10.5625 2.84375C10.5625 2.95149 10.5197 3.05483 10.4435 3.13101C10.3673 3.2072 10.264 3.25 10.1562 3.25H2.84375C2.73601 3.25 2.63267 3.2072 2.55649 3.13101C2.4803 3.05483 2.4375 2.95149 2.4375 2.84375ZM2.4375 4.875C2.4375 4.76726 2.4803 4.66392 2.55649 4.58774C2.63267 4.51155 2.73601 4.46875 2.84375 4.46875H10.1562C10.264 4.46875 10.3673 4.51155 10.4435 4.58774C10.5197 4.66392 10.5625 4.76726 10.5625 4.875C10.5625 4.98274 10.5197 5.08608 10.4435 5.16226C10.3673 5.23845 10.264 5.28125 10.1562 5.28125H2.84375C2.73601 5.28125 2.63267 5.23845 2.55649 5.16226C2.4803 5.08608 2.4375 4.98274 2.4375 4.875ZM2.4375 6.90625C2.4375 6.79851 2.4803 6.69517 2.55649 6.61899C2.63267 6.5428 2.73601 6.5 2.84375 6.5H6.90625C7.01399 6.5 7.11733 6.5428 7.19351 6.61899C7.2697 6.69517 7.3125 6.79851 7.3125 6.90625C7.3125 7.01399 7.2697 7.11733 7.19351 7.19351C7.11733 7.2697 7.01399 7.3125 6.90625 7.3125H2.84375C2.73601 7.3125 2.63267 7.2697 2.55649 7.19351C2.4803 7.11733 2.4375 7.01399 2.4375 6.90625Z" fill="#636365"/>
</svg>
