<svg width="22" height="23" viewBox="0 0 22 23" fill="none" xmlns="http://www.w3.org/2000/svg">
<path d="M10.79 22.18C8.73 22.18 6.91 21.72 5.33 20.8C3.77 19.88 2.54 18.62 1.64 17.02C0.76 15.4 0.32 13.54 0.32 11.44C0.32 9.36 0.76 7.52 1.64 5.92C2.54 4.3 3.77 3.04 5.33 2.14C6.91 1.22 8.73 0.76 10.79 0.76C12.87 0.76 14.69 1.22 16.25 2.14C17.83 3.04 19.06 4.3 19.94 5.92C20.82 7.52 21.26 9.36 21.26 11.44C21.26 13.54 20.82 15.4 19.94 17.02C19.06 18.62 17.83 19.88 16.25 20.8C14.69 21.72 12.87 22.18 10.79 22.18ZM10.79 20.77C12.65 20.77 14.25 20.38 15.59 19.6C16.93 18.82 17.96 17.73 18.68 16.33C19.42 14.93 19.79 13.3 19.79 11.44C19.79 9.58 19.42 7.95 18.68 6.55C17.96 5.15 16.93 4.07 15.59 3.31C14.25 2.53 12.65 2.14 10.79 2.14C8.95 2.14 7.36 2.53 6.02 3.31C4.68 4.07 3.64 5.15 2.9 6.55C2.18 7.95 1.82 9.58 1.82 11.44C1.82 13.3 2.18 14.93 2.9 16.33C3.64 17.73 4.68 18.82 6.02 19.6C7.36 20.38 8.95 20.77 10.79 20.77ZM10.82 18.31C9.58 18.31 8.46 18.04 7.46 17.5C6.46 16.94 5.67 16.15 5.09 15.13C4.53 14.09 4.25 12.86 4.25 11.44C4.25 10.02 4.53 8.8 5.09 7.78C5.67 6.76 6.46 5.97 7.46 5.41C8.46 4.85 9.58 4.57 10.82 4.57C12.36 4.57 13.69 4.99 14.81 5.83C15.95 6.67 16.69 7.84 17.03 9.34H13.67C13.45 8.68 13.08 8.17 12.56 7.81C12.06 7.43 11.45 7.24 10.73 7.24C9.79 7.24 9 7.59 8.36 8.29C7.74 8.99 7.43 10.04 7.43 11.44C7.43 12.84 7.74 13.9 8.36 14.62C9 15.32 9.79 15.67 10.73 15.67C11.49 15.67 12.11 15.48 12.59 15.1C13.07 14.72 13.43 14.21 13.67 13.57H17.03C16.69 15.01 15.95 16.16 14.81 17.02C13.69 17.88 12.36 18.31 10.82 18.31Z" fill="#1C1C1C"/>
</svg>
