<svg width="47" height="26" viewBox="0 0 47 26" fill="none" xmlns="http://www.w3.org/2000/svg">
<path fill-rule="evenodd" clip-rule="evenodd" d="M8.93768 0.0626092C8.75091 0.132341 8.3929 0.470946 8.2625 0.701099C8.2008 0.810114 8.1367 1.50104 8.11003 2.34572L8.06405 3.80239L6.27081 3.85455C5.28453 3.88321 4.46525 3.91488 4.45017 3.92503C4.43509 3.93509 4.36786 4.07662 4.30091 4.23949C4.12867 4.65807 4.24059 4.99141 4.6202 5.19027C4.9131 5.34364 5.29216 5.35445 9.56642 5.33123L14.1955 5.30605L14.4174 5.04234C14.6896 4.71896 14.6993 4.42265 14.4486 4.09701L14.2581 3.84938H11.9197H9.58141V2.67465V1.49992H21.7667H33.9519L33.9286 11.2972L33.9051 21.0944L28.5458 21.1187C24.3056 21.1379 23.178 21.1182 23.1462 21.0247C22.7191 19.769 22.3328 19.1666 21.5801 18.5821C20.3849 17.654 18.6732 17.5154 17.2932 18.2349C16.4585 18.67 15.694 19.6146 15.3599 20.6233L15.2038 21.0944L12.3926 21.1193L9.58141 21.1442V18.9812V16.8184H10.8229C11.9418 16.8184 12.0826 16.7998 12.2483 16.6305C12.5279 16.3447 12.5234 15.8486 12.2384 15.5497C12.0636 15.3664 11.9382 15.3618 7.08798 15.3618H2.11666L1.89466 15.6255C1.62246 15.9488 1.61271 16.2451 1.8634 16.5708L2.05394 16.8184H5.08203H8.11003V19.4864C8.11003 21.9727 8.12199 22.1695 8.28577 22.3762L8.46142 22.5981L11.8391 22.6451L15.2169 22.6921L15.3268 23.068C15.7554 24.5345 17.0149 25.6594 18.5472 25.9439C20.3995 26.2881 22.4662 25.0085 22.9878 23.1946L23.1457 22.6454L29.8184 22.6452L36.4912 22.6451L36.6086 23.1131C36.8626 24.1258 37.723 25.1234 38.7617 25.6094C40.9336 26.6255 43.4461 25.5237 44.2432 23.2057L44.4197 22.6921L45.282 22.6451C46.2383 22.5929 46.5244 22.4664 46.8332 21.9587C47.0062 21.6739 47.0144 21.5139 46.9897 18.8859C46.964 16.1576 46.9599 16.1047 46.7302 15.5497C46.6019 15.2396 45.5761 13.2942 44.4508 11.2267C42.2989 7.27283 42.0239 6.87032 41.3426 6.67701C41.1245 6.61507 39.9081 6.5756 38.2092 6.57532L35.4324 6.57476L35.4044 3.73191C35.3768 0.927869 35.3735 0.884827 35.1623 0.582216C34.7231 -0.0470638 35.7108 -0.00449137 21.7479 0.00368476C14.7781 0.00772584 9.01355 0.0343217 8.93768 0.0626092ZM8.52386 6.97022C8.12806 7.20216 8.11601 7.28082 8.11298 9.65256L8.11003 11.9315H7.00236C5.94886 11.9315 5.88356 11.9428 5.66893 12.1623C5.37024 12.4674 5.37024 12.8993 5.66893 13.2045L5.8946 13.4352H12.6456C19.336 13.4352 19.3986 13.4334 19.6387 13.2404C19.981 12.9653 19.981 12.4014 19.6387 12.1264C19.4005 11.9348 19.3145 11.9315 14.4889 11.9315H9.58141V9.66881V7.40609L9.31261 7.13139C9.02615 6.83865 8.82016 6.79655 8.52386 6.97022ZM0.221891 8.13076C-0.0925233 8.35575 -0.0678778 9.02995 0.264561 9.29713C0.505499 9.49082 0.580263 9.49505 3.30746 9.46845L6.10335 9.4411L6.279 9.21922C6.52297 8.91125 6.50605 8.44239 6.24194 8.18874C6.033 7.98819 5.97736 7.98444 3.22764 7.98444C0.840973 7.98444 0.395974 8.00605 0.221891 8.13076ZM41.0897 8.25481C41.3934 8.61719 45.2737 15.85 45.4033 16.2951C45.5051 16.6447 45.5382 17.2976 45.5382 18.9545V21.1504L44.9797 21.1224L44.4212 21.0944L44.2655 20.6233C43.5716 18.5237 41.4902 17.3554 39.4191 17.9031C38.0936 18.2537 36.9627 19.3713 36.57 20.7185C36.4606 21.0942 36.4601 21.0944 35.9415 21.1226L35.4225 21.1508V14.6146V8.07841H38.1822C40.7678 8.07841 40.9512 8.0895 41.0897 8.25481ZM19.965 19.4091C20.5321 19.5812 21.1818 20.1456 21.4643 20.7116C21.7268 21.2373 21.7827 22.1225 21.5908 22.7129C21.3914 23.3265 20.8959 23.9073 20.3076 24.2171C19.7332 24.5196 18.7677 24.5572 18.1966 24.2994C17.6663 24.06 17.0759 23.4514 16.8475 22.9089C16.5958 22.3111 16.6166 21.3038 16.8927 20.7226C17.2749 19.9177 18.2474 19.278 19.1056 19.2667C19.3114 19.264 19.6981 19.3281 19.965 19.4091ZM41.3386 19.4521C43.0873 20.1206 43.5365 22.5187 42.1521 23.7942C41.624 24.2807 41.1857 24.4554 40.4803 24.4608C39.0591 24.4715 38.0166 23.4852 37.9261 22.044C37.8735 21.2063 38.0962 20.6063 38.6754 20.0254C39.3982 19.3005 40.386 19.0878 41.3386 19.4521Z" fill="white"/>
</svg>
