<svg width="21" height="21" viewBox="0 0 21 21" fill="none" xmlns="http://www.w3.org/2000/svg">
<path d="M14.9423 3.69113L17.3095 6.05721L14.9423 3.69113ZM16.4645 1.6067L10.0637 8.00753C9.73297 8.33779 9.50742 8.75857 9.41546 9.21683L8.82422 12.1764L11.7838 11.584C12.242 11.4924 12.6623 11.2677 12.9931 10.9369L19.3939 4.53608C19.5863 4.34373 19.7388 4.11538 19.8429 3.86407C19.947 3.61276 20.0006 3.3434 20.0006 3.07139C20.0006 2.79937 19.947 2.53001 19.8429 2.2787C19.7388 2.02739 19.5863 1.79904 19.3939 1.6067C19.2016 1.41435 18.9732 1.26177 18.7219 1.15767C18.4706 1.05358 18.2012 1 17.9292 1C17.6572 1 17.3878 1.05358 17.1365 1.15767C16.8852 1.26177 16.6569 1.41435 16.4645 1.6067V1.6067Z" stroke="#1C1C1C" stroke-width="2" stroke-linecap="round" stroke-linejoin="round"/>
<path d="M17.7649 14.4119V17.7649C17.7649 18.3578 17.5294 18.9263 17.1102 19.3455C16.691 19.7647 16.1224 20.0002 15.5296 20.0002H3.23532C2.64247 20.0002 2.07391 19.7647 1.65471 19.3455C1.23551 18.9263 1 18.3578 1 17.7649V5.47067C1 4.87783 1.23551 4.30926 1.65471 3.89006C2.07391 3.47086 2.64247 3.23535 3.23532 3.23535H6.58829" stroke="#1C1C1C" stroke-width="2" stroke-linecap="round" stroke-linejoin="round"/>
</svg>
