<svg width="17" height="17" viewBox="0 0 17 17" fill="none" xmlns="http://www.w3.org/2000/svg">
<path d="M11.9134 11.1742C12.4097 10.9076 12.9778 10.7559 13.5828 10.7559H13.5848C13.6463 10.7559 13.6751 10.682 13.6299 10.641C13.0008 10.0764 12.2821 9.62036 11.5033 9.2916C11.4951 9.2875 11.4869 9.28545 11.4787 9.28135C12.7522 8.35645 13.5807 6.85322 13.5807 5.15723C13.5807 2.34766 11.3084 0.0712891 8.50503 0.0712891C5.70161 0.0712891 3.4314 2.34766 3.4314 5.15723C3.4314 6.85322 4.25991 8.35645 5.5355 9.28135C5.5273 9.28545 5.51909 9.2875 5.51089 9.2916C4.59419 9.6792 3.77183 10.235 3.06431 10.9445C2.36088 11.6467 1.80085 12.4791 1.41548 13.3952C1.03632 14.2924 0.831688 15.2536 0.812551 16.2273C0.812004 16.2492 0.815843 16.271 0.823843 16.2914C0.831842 16.3118 0.84384 16.3303 0.859129 16.346C0.874419 16.3617 0.892691 16.3741 0.912868 16.3826C0.933045 16.3911 0.954719 16.3955 0.976614 16.3955H2.20503C2.29322 16.3955 2.36704 16.3237 2.36909 16.2355C2.41011 14.6523 3.0438 13.1696 4.16558 12.0458C5.32427 10.883 6.86646 10.2432 8.50708 10.2432C9.66988 10.2432 10.7855 10.5651 11.7473 11.1681C11.772 11.1836 11.8004 11.1923 11.8295 11.1934C11.8587 11.1945 11.8876 11.1879 11.9134 11.1742ZM8.50708 8.68457C7.56782 8.68457 6.68394 8.31748 6.01743 7.65098C5.6895 7.3239 5.42953 6.93516 5.25249 6.50717C5.07545 6.07918 4.98485 5.62039 4.98589 5.15723C4.98589 4.21592 5.35298 3.32998 6.01743 2.66348C6.68189 1.99697 7.56577 1.62988 8.50708 1.62988C9.44839 1.62988 10.3302 1.99697 10.9967 2.66348C11.3247 2.99056 11.5846 3.37929 11.7617 3.80728C11.9387 4.23527 12.0293 4.69407 12.0283 5.15723C12.0283 6.09854 11.6612 6.98447 10.9967 7.65098C10.3302 8.31748 9.44634 8.68457 8.50708 8.68457ZM16.0499 13.5654H14.3272V11.8428C14.3272 11.7525 14.2534 11.6787 14.1631 11.6787H13.0147C12.9245 11.6787 12.8506 11.7525 12.8506 11.8428V13.5654H11.128C11.0377 13.5654 10.9639 13.6393 10.9639 13.7295V14.8779C10.9639 14.9682 11.0377 15.042 11.128 15.042H12.8506V16.7646C12.8506 16.8549 12.9245 16.9287 13.0147 16.9287H14.1631C14.2534 16.9287 14.3272 16.8549 14.3272 16.7646V15.042H16.0499C16.1401 15.042 16.2139 14.9682 16.2139 14.8779V13.7295C16.2139 13.6393 16.1401 13.5654 16.0499 13.5654Z" fill="white"/>
</svg>
