<svg width="111" height="22" viewBox="0 0 111 22" fill="none" xmlns="http://www.w3.org/2000/svg">
<g opacity="0.2">
<path d="M1.81909 7.32349C3.50327 8.08903 4.88124 9.3139 6.56541 9.92633C6.4123 10.5388 5.95301 11.0746 5.87646 11.687C5.72335 12.376 5.72335 13.1416 5.87646 13.8305C6.56544 16.4333 8.93859 17.7348 11.2352 17.8113C11.618 17.8113 11.8476 17.352 11.5414 17.0458C9.7041 15.132 12.5366 13.3712 13.9146 13.1415C15.4456 12.8353 17.0532 12.8353 18.5843 12.8353C21.723 12.9119 24.4789 13.9836 27.2348 15.4381C31.6749 18.4237 36.7275 20.95 42.0862 21.4859C42.4435 21.4859 42.7752 21.4859 43.0814 21.4859C45.8373 21.5624 48.7463 20.95 50.9664 19.2658C52.8802 17.8113 54.2582 15.6678 54.7175 13.3712C54.8706 12.6057 54.9472 11.8402 54.9472 11.0746C55.0237 5.94555 51.2726 0.586796 46.1435 0.0509224C44.1531 -0.178738 41.9331 0.357155 40.6317 1.88822C39.3303 3.34274 39.1772 5.86898 40.6317 7.32349C42.0096 8.70146 44.9187 8.08903 45.4545 6.17519C45.6842 5.10345 45.3014 3.87858 45.8373 2.95994C46.2966 2.11786 47.2918 1.73512 48.2105 1.88822C49.2057 2.04133 49.9712 2.65375 50.6602 3.26617C55.6362 8.3187 52.4209 16.5099 46.1435 18.4237C40.402 20.261 34.8902 17.0458 29.9908 13.6774C27.388 11.9167 25.4741 7.32351 28.919 5.33313C29.2252 5.10347 29.6845 4.87378 29.5314 4.49101C29.5314 4.3379 29.3783 4.26135 29.3018 4.10824C28.4597 3.41926 27.2349 3.1896 26.1631 3.34271C24.7086 3.57237 23.3306 4.33789 22.412 5.48619C22.0292 6.02207 21.7995 7.62972 21.3402 7.85938C20.8809 8.16559 18.7374 7.24695 18.125 7.09384C12.7663 5.56278 6.94819 3.26615 1.35979 5.48619C0.211488 5.94551 1.05356 6.94073 1.81909 7.32349Z" fill="#636365"/>
<path d="M109.913 5.48619C104.401 3.26615 98.5063 5.56278 93.1476 7.09384C92.6117 7.24695 90.4682 8.16559 89.9323 7.85938C89.473 7.62972 89.2433 6.02207 88.8606 5.48619C87.9419 4.33789 86.564 3.57237 85.1095 3.34271C84.0377 3.1896 82.8128 3.41926 81.9708 4.10824C81.8942 4.26135 81.7411 4.3379 81.7411 4.49101C81.588 4.87378 82.0473 5.10347 82.3535 5.33313C85.875 7.32351 83.8846 11.9167 81.2818 13.6774C76.3824 17.0458 70.8705 20.261 65.129 18.4237C58.8516 16.5099 55.6364 8.3187 60.6889 3.26617C61.3013 2.65375 62.1434 2.04133 63.0621 1.88822C63.9807 1.73512 65.0525 2.11786 65.5118 2.95994C65.9711 3.87858 65.5883 5.10345 65.8945 6.17519C66.3539 8.08903 69.2629 8.70146 70.7174 7.32349C72.1719 5.86898 71.9423 3.34274 70.6409 1.88822C69.3395 0.357155 67.196 -0.178738 65.2056 0.0509224C60 0.586796 56.2488 5.94555 56.3254 11.0746C56.3254 11.8402 56.4019 12.6057 56.555 13.3712C57.0143 15.6678 58.3923 17.8113 60.3062 19.2658C62.5262 20.95 65.4352 21.5624 68.1911 21.4859C68.5484 21.4859 68.8801 21.4859 69.1863 21.4859C74.6216 20.95 79.5976 18.4237 84.1142 15.4381C86.7936 13.9836 89.6261 12.9119 92.6882 12.8353C94.2959 12.8353 95.9035 12.8353 97.4346 13.1415C98.736 13.3712 101.568 15.132 99.7312 17.0458C99.4249 17.352 99.6546 17.8113 100.037 17.8113C102.334 17.7348 104.707 16.4333 105.396 13.8305C105.549 13.1416 105.626 12.376 105.473 11.687C105.32 11.0746 104.86 10.5388 104.707 9.92633C106.391 9.3139 107.846 8.08903 109.453 7.32349C110.296 6.94073 111.061 5.94551 109.913 5.48619Z" fill="#636365"/>
</g>
</svg>
