<svg width="585" height="189" viewBox="0 0 585 189" fill="none" xmlns="http://www.w3.org/2000/svg">
<path d="M341.384 -249.774L338.797 -237.722C320.064 -150.469 401.791 -75.1034 487.243 -100.83L499.524 -104.527C579.844 -128.709 656.499 -57.4987 638.29 24.382L631.922 53.0171C618.748 112.261 667.631 166.939 727.975 160.456V160.456" stroke="white" stroke-opacity="0.07" stroke-width="1.61245"/>
<path d="M335.814 -243.783L333.227 -231.731C314.493 -144.479 396.22 -69.1127 481.673 -94.8394L493.954 -98.5366C574.273 -122.718 650.928 -51.508 632.72 30.3728L626.352 59.0078C613.178 118.252 662.061 172.93 722.405 166.447V166.447" stroke="white" stroke-opacity="0.07" stroke-width="1.61245"/>
<path d="M330.244 -237.792L327.656 -225.74C308.923 -138.487 390.65 -63.1215 476.103 -88.8482L488.383 -92.5454C568.703 -116.727 645.358 -45.5168 627.15 36.364L620.782 64.999C607.607 124.243 656.491 178.921 716.835 172.438V172.438" stroke="white" stroke-opacity="0.07" stroke-width="1.61245"/>
<path d="M324.67 -231.801L322.082 -219.75C303.349 -132.497 385.076 -57.1308 470.528 -82.8574L482.809 -86.5547C563.129 -110.736 639.784 -39.526 621.575 42.3547L615.208 70.9897C602.033 130.234 650.916 184.912 711.26 178.429V178.429" stroke="white" stroke-opacity="0.07" stroke-width="1.61245"/>
<path d="M319.099 -225.81L316.512 -213.758C297.778 -126.505 379.506 -51.1396 464.958 -76.8662L477.239 -80.5635C557.558 -104.745 634.214 -33.5348 616.005 48.3459L609.637 76.9809C596.463 136.225 645.346 190.903 705.69 184.42V184.42" stroke="white" stroke-opacity="0.07" stroke-width="1.61245"/>
<path d="M313.529 -219.818L310.941 -207.767C292.208 -120.514 373.935 -45.1484 459.388 -70.875L471.668 -74.5722C551.988 -98.7536 628.643 -27.5436 610.435 54.3371L604.067 82.9721C590.892 142.216 639.776 196.894 700.12 190.411V190.411" stroke="white" stroke-opacity="0.07" stroke-width="1.61245"/>
<path d="M307.959 -213.827L305.371 -201.775C286.638 -114.523 368.365 -39.1567 453.817 -64.8833L466.098 -68.5805C546.418 -92.7619 623.073 -21.5519 604.864 60.3288L598.497 88.9638C585.322 148.208 634.206 202.886 694.549 196.403V196.403" stroke="white" stroke-opacity="0.07" stroke-width="1.61245"/>
<path d="M302.384 -207.836L299.797 -195.785C281.064 -108.532 362.791 -33.1659 448.243 -58.8926L460.524 -62.5898C540.844 -86.7712 617.499 -15.5612 599.29 66.3195L592.922 94.9546C579.748 154.198 628.631 208.877 688.975 202.394V202.394" stroke="white" stroke-opacity="0.07" stroke-width="1.61245"/>
<path d="M296.814 -201.845L294.227 -189.794C275.493 -102.541 357.22 -27.1752 442.673 -52.9019L454.954 -56.5991C535.273 -80.7805 611.928 -9.57048 593.72 72.3103L587.352 100.945C574.178 160.189 623.061 214.867 683.405 208.384V208.384" stroke="white" stroke-opacity="0.07" stroke-width="1.61245"/>
<path d="M291.244 -195.854L288.656 -183.803C269.923 -96.5499 351.65 -21.184 437.103 -46.9107L449.383 -50.6079C529.703 -74.7893 606.358 -3.57927 588.15 78.3015L581.782 106.936C568.607 166.18 617.491 220.859 677.835 214.376V214.376" stroke="white" stroke-opacity="0.07" stroke-width="1.61245"/>
<path d="M285.67 -189.863L283.082 -177.812C264.349 -90.5591 346.076 -15.1933 431.528 -40.9199L443.809 -44.6172C524.129 -68.7985 600.784 2.41145 582.575 84.2922L576.208 112.927C563.033 172.171 611.916 226.849 672.26 220.366V220.366" stroke="white" stroke-opacity="0.07" stroke-width="1.61245"/>
<path d="M280.099 -183.872L277.512 -171.821C258.778 -84.5679 340.506 -9.20206 425.958 -34.9287L438.239 -38.626C518.558 -62.8073 595.214 8.40266 577.005 90.2834L570.637 118.918C557.463 178.162 606.346 232.841 666.69 226.358V226.358" stroke="white" stroke-opacity="0.07" stroke-width="1.61245"/>
<path d="M274.529 -177.881L271.941 -165.83C253.208 -78.5772 334.935 -3.21134 420.388 -28.938L432.668 -32.6352C512.988 -56.8166 589.643 14.3934 571.435 96.2741L565.067 124.909C551.892 184.153 600.776 238.831 661.12 232.348V232.348" stroke="white" stroke-opacity="0.07" stroke-width="1.61245"/>
<path d="M268.959 -171.89L266.371 -159.838C247.638 -72.5855 329.365 2.78036 414.817 -22.9463L427.098 -26.6435C507.418 -50.8249 584.073 20.3851 565.864 102.266L559.497 130.901C546.322 190.145 595.206 244.823 655.549 238.34V238.34" stroke="white" stroke-opacity="0.07" stroke-width="1.61245"/>
<path d="M263.388 -165.899L260.801 -153.848C242.068 -66.5948 323.795 8.77108 409.247 -16.9556L421.528 -20.6528C501.847 -44.8342 578.503 26.3758 560.294 108.257L553.926 136.892C540.752 196.135 589.635 250.814 649.979 244.331V244.331" stroke="white" stroke-opacity="0.07" stroke-width="1.61245"/>
<path d="M257.947 -160.05L255.359 -147.999C236.626 -60.7457 318.353 14.6202 403.806 -11.1065L416.086 -14.8037C496.406 -38.9851 573.061 32.2249 554.853 114.106L548.485 142.741C535.31 201.985 584.194 256.663 644.538 250.18V250.18" stroke="white" stroke-opacity="0.07" stroke-width="1.61245"/>
<path d="M252.509 -154.2L249.922 -142.149C231.189 -54.8961 312.916 20.4698 398.368 -5.25685L410.649 -8.95408C490.969 -33.1354 567.624 38.0745 549.415 119.955L543.047 148.59C529.873 207.834 578.756 262.512 639.1 256.029V256.029" stroke="white" stroke-opacity="0.07" stroke-width="1.61245"/>
<path d="M247.068 -148.351L244.481 -136.3C225.747 -49.0469 307.474 26.3189 392.927 0.592271L405.207 -3.10496C485.527 -27.2863 562.182 43.9237 543.974 125.804L537.606 154.439C524.432 213.683 573.315 268.362 633.659 261.879V261.879" stroke="white" stroke-opacity="0.07" stroke-width="1.61245"/>
<path d="M241.63 -142.502L239.043 -130.451C220.31 -43.1978 302.037 32.1681 387.489 6.44139L399.77 2.74416C480.09 -21.4372 556.745 49.7728 538.536 131.654L532.169 160.289C518.994 219.532 567.877 274.211 628.221 267.728V267.728" stroke="white" stroke-opacity="0.07" stroke-width="1.61245"/>
<path d="M236.189 -136.652L233.602 -124.601C214.868 -37.3482 296.595 38.0176 382.048 12.291L394.329 8.59375C474.648 -15.5876 551.303 55.6224 533.095 137.503L526.727 166.138C513.553 225.382 562.436 280.06 622.78 273.577V273.577" stroke="white" stroke-opacity="0.07" stroke-width="1.61245"/>
<path d="M230.748 -130.803L228.16 -118.751C209.427 -31.4986 291.154 43.8673 376.607 18.1406L388.887 14.4434C469.207 -9.738 545.862 61.472 527.654 143.353L521.286 171.988C508.111 231.232 556.995 285.91 617.338 279.427V279.427" stroke="white" stroke-opacity="0.07" stroke-width="1.61245"/>
<path d="M225.31 -124.954L222.723 -112.902C203.989 -25.6495 285.716 49.7164 371.169 23.9897L383.45 20.2925C463.769 -3.88887 540.425 67.3211 522.216 149.202L515.848 177.837C502.674 237.081 551.557 291.759 611.901 285.276V285.276" stroke="white" stroke-opacity="0.07" stroke-width="1.61245"/>
<path d="M219.869 -119.105L217.281 -107.053C198.548 -19.8004 280.275 55.5655 365.728 29.8388L378.008 26.1416C458.328 1.96024 534.983 73.1702 516.775 155.051L510.407 183.686C497.232 242.93 546.116 297.608 606.46 291.125V291.125" stroke="white" stroke-opacity="0.07" stroke-width="1.61245"/>
<path d="M214.431 -113.255L211.844 -101.204C193.111 -13.9512 274.838 61.4146 360.29 35.688L372.571 31.9907C452.89 7.80938 529.546 79.0194 511.337 160.9L504.969 189.535C491.795 248.779 540.678 303.457 601.022 296.974V296.974" stroke="white" stroke-opacity="0.07" stroke-width="1.61245"/>
<path d="M208.99 -107.406L206.402 -95.355C187.669 -8.10211 269.396 67.2638 354.849 41.5371L367.129 37.8399C447.449 13.6585 524.104 84.8685 505.896 166.749L499.528 195.384C486.353 254.628 535.237 309.306 595.581 302.823V302.823" stroke="white" stroke-opacity="0.07" stroke-width="1.61245"/>
<path d="M203.552 -101.557L200.965 -89.5059C182.232 -2.25301 263.959 73.1129 349.411 47.3862L361.692 43.689C442.012 19.5076 518.667 90.7176 500.458 172.598L494.09 201.233C480.916 260.477 529.799 315.155 590.143 308.673V308.673" stroke="white" stroke-opacity="0.07" stroke-width="1.61245"/>
<path d="M198.111 -95.7081L195.523 -83.6568C176.79 3.59613 258.517 78.962 343.97 53.2353L356.25 49.5381C436.57 25.3567 513.225 96.5667 495.017 178.447L488.649 207.082C475.474 266.326 524.358 321.005 584.702 314.522V314.522" stroke="white" stroke-opacity="0.07" stroke-width="1.61245"/>
<path d="M192.673 -89.858L190.086 -77.8067C171.353 9.44623 253.08 84.8121 338.532 59.0854L350.813 55.3882C431.133 31.2068 507.788 102.417 489.579 184.298L483.212 212.933C470.037 272.176 518.92 326.855 579.264 320.372V320.372" stroke="white" stroke-opacity="0.07" stroke-width="1.61245"/>
<path d="M187.232 -84.0094L184.645 -71.958C165.911 15.2948 247.638 90.6607 333.091 64.9341L345.371 61.2368C425.691 37.0555 502.346 108.265 484.138 190.146L477.77 218.781C464.596 278.025 513.479 332.703 573.823 326.22V326.22" stroke="white" stroke-opacity="0.07" stroke-width="1.61245"/>
</svg>
