<svg width="31" height="35" viewBox="0 0 31 35" fill="none" xmlns="http://www.w3.org/2000/svg">
<path fill-rule="evenodd" clip-rule="evenodd" d="M14.3893 0.072012C12.2479 0.321997 10.0288 1.25942 8.3643 2.61728C6.36306 4.2498 4.92698 6.43011 4.2343 8.88762C3.88505 10.1267 3.82417 10.627 3.78459 12.581L3.74652 14.4618L3.11658 14.5032C2.75081 14.5272 2.3615 14.5967 2.18824 14.6689C1.43024 14.9847 0.802685 15.5696 0.413245 16.3233C0.00808985 17.1074 0 17.1963 0 20.864C0 23.9804 0.00835512 24.2216 0.130233 24.6285C0.450909 25.6987 1.27216 26.5471 2.30647 26.8766C2.6908 26.999 2.92488 27.0124 4.68846 27.0124H6.64428L6.86973 26.7798L7.09519 26.5473L7.09492 20.8465C7.09472 15.1565 7.09446 15.1453 6.95395 14.9076C6.73426 14.5359 6.65283 14.5006 6.01035 14.4982L5.42278 14.496L5.45514 12.7691C5.49187 10.8086 5.5674 10.2544 5.96626 9.01723C7.11488 5.45452 9.96894 2.79722 13.5241 1.98045C15.3614 1.55831 17.491 1.70399 19.2299 2.37085C22.616 3.66926 24.9536 6.4375 25.8017 10.1529C25.9208 10.6745 25.9472 11.0531 25.9749 12.6323L26.0075 14.496H25.4517C24.8035 14.496 24.6507 14.5741 24.4627 15.001C24.3449 15.2686 24.3387 15.5594 24.3373 20.8431C24.3357 26.9464 24.3189 26.6885 24.7315 26.9086C24.8611 26.9777 25.1162 27.0124 25.4953 27.0124C26.0635 27.0124 26.0644 27.0127 25.9854 27.1648C25.8324 27.4599 24.8273 28.4248 24.3081 28.7751C23.3808 29.4009 22.2759 29.7892 21.21 29.8641L20.6371 29.9043L20.5908 29.6723C20.5652 29.5448 20.424 29.1805 20.2769 28.8629C20.0619 28.3986 19.9037 28.1772 19.4705 27.7338C18.8577 27.1067 18.3492 26.8138 17.4791 26.5869C15.4617 26.0607 13.2664 27.3481 12.6283 29.4316C12.284 30.5559 12.3594 31.5437 12.8715 32.6148C13.5928 34.1238 15.2129 35.1016 16.8096 34.9916C17.9043 34.9162 19.0483 34.3541 19.7279 33.5579C20.0792 33.1461 20.5219 32.2802 20.5883 31.8746C20.6331 31.6012 20.6402 31.5949 20.9016 31.5949C21.4369 31.5949 22.5945 31.3759 23.2517 31.1503C25.0875 30.5202 26.5094 29.3977 27.6375 27.6879L28.1168 26.9614L28.4416 26.917C29.2123 26.8116 30.0376 26.3691 30.4392 25.8459C30.5482 25.704 30.719 25.4082 30.8187 25.1887L31 24.7895V21.1988V17.608L30.7926 17.0535C30.2506 15.6048 29.2149 14.6171 28.1314 14.5157L27.7354 14.4787L27.6987 12.7604C27.6604 10.9669 27.589 10.3332 27.2933 9.161C26.5394 6.17246 24.5529 3.45389 21.8824 1.7559C19.7661 0.410364 16.9371 -0.225371 14.3893 0.072012ZM5.43743 20.7542V25.3025L4.19412 25.3018C3.02547 25.3012 2.93091 25.2915 2.61925 25.1395C2.22079 24.9452 1.9771 24.6899 1.79575 24.2766C1.66631 23.9817 1.66061 23.8394 1.65921 20.8864C1.65755 17.3894 1.66319 17.3411 2.13565 16.7875C2.59133 16.2535 2.74849 16.2091 4.19412 16.2074L5.43743 16.2059V20.7542ZM28.1438 16.2724C28.4705 16.4005 28.8843 16.8738 29.1165 17.3846L29.3422 17.8816L29.3631 21.0278C29.3771 23.1368 29.3605 24.2565 29.3125 24.4241C29.2733 24.5617 29.1375 24.7681 29.0108 24.8828C28.6429 25.216 28.2375 25.3025 27.0425 25.3025H25.9936V20.7542V16.2059H26.9839C27.5286 16.2059 28.0506 16.2359 28.1438 16.2724ZM17.5878 28.3973C18.0713 28.6258 18.5906 29.1597 18.8196 29.6637C18.9778 30.0117 18.9978 30.137 18.9973 30.7741C18.9969 31.3982 18.9754 31.5371 18.8337 31.8343C18.4984 32.5371 17.7855 33.0824 17.0084 33.2306C15.9575 33.4309 14.8037 32.7934 14.3444 31.7587C13.7176 30.3464 14.4097 28.761 15.8671 28.2703C16.3132 28.1202 17.1289 28.1804 17.5878 28.3973Z" fill="white"/>
</svg>
