<svg width="34" height="32" viewBox="0 0 34 32" fill="none" xmlns="http://www.w3.org/2000/svg">
<path fill-rule="evenodd" clip-rule="evenodd" d="M12.2872 0.0419326C10.8923 0.336526 9.89218 1.1005 9.1251 2.45748C8.3727 3.78857 7.82246 4.19846 6.4639 4.43968C5.5052 4.60989 4.98629 4.79934 4.3413 5.2145C3.71396 5.61829 3.2805 6.09293 2.925 6.76535C2.51498 7.54086 2.44062 7.90119 2.476 8.94159C2.54927 11.0912 2.53795 11.2728 2.3036 11.7117C2.18534 11.9333 1.78844 12.4316 1.42169 12.8189C0.373086 13.9263 -0.0868519 15.0553 0.013447 16.2757C0.108356 17.4305 0.507599 18.221 1.56105 19.3399C1.88436 19.6834 2.23174 20.1301 2.33298 20.3326C2.53146 20.7296 2.54287 20.9527 2.47499 23.1062C2.45015 23.893 2.47054 24.1345 2.59107 24.4807C3.19645 26.2191 4.3691 27.1559 6.45304 27.566C7.91058 27.8527 8.34653 28.1746 9.11237 29.5297C10.0551 31.1974 11.3732 32.0046 13.1465 32C14.0082 31.9978 14.3418 31.9128 15.4224 31.4202C16.7024 30.8367 17.2597 30.8312 18.5155 31.3893C19.733 31.9302 19.9917 31.9958 20.9189 31.9979C21.516 31.9993 21.8559 31.9612 22.1687 31.858C23.4081 31.4488 24.2173 30.7662 24.9006 29.5537C25.6604 28.2055 26.1857 27.8136 27.5586 27.5705C28.5387 27.3971 29.1878 27.1525 29.7978 26.7271C30.3641 26.3321 30.8299 25.7948 31.1461 25.1719C31.5126 24.45 31.5846 24.0753 31.5503 23.068C31.4768 20.909 31.4877 20.7382 31.7276 20.2885C31.8486 20.0617 32.189 19.6267 32.4842 19.3219C33.5866 18.1833 34 17.2788 34 16.0048C34 14.7289 33.6154 13.8848 32.4977 12.707C31.5215 11.6784 31.362 11.16 31.5448 9.60889C31.6777 8.48038 31.5814 7.73298 31.203 6.95831C30.5051 5.52917 29.3998 4.76505 27.5586 4.43892C26.2375 4.20495 25.6668 3.80147 25.0163 2.64196C24.2206 1.22374 23.5071 0.599812 22.1687 0.152042C21.8443 0.0434596 21.5287 0.00963268 20.8798 0.0139088C19.9476 0.0200175 19.7883 0.0633894 18.3411 0.705493C17.7372 0.973437 17.6171 1.00009 17.0132 0.999934C16.3841 0.999858 16.306 0.980386 15.529 0.629669C15.0779 0.426019 14.5506 0.210075 14.3573 0.149675C13.927 0.0152833 12.7128 -0.047942 12.2872 0.0419326ZM22.1839 1.84767C22.745 2.1257 23.175 2.59668 23.6153 3.41586C23.8916 3.92991 24.1541 4.28361 24.5489 4.67403C25.2799 5.39692 25.9009 5.70129 27.1678 5.9574C28.2855 6.18334 28.7184 6.3679 29.1727 6.81193C29.9045 7.52734 30.0822 8.25275 29.9014 9.78719C29.7082 11.4265 30.0705 12.4591 31.285 13.7307C32.1882 14.6765 32.3626 15.0445 32.3626 16.0048C32.3626 16.953 32.1751 17.3624 31.3569 18.1994C30.6794 18.8927 30.2974 19.4723 30.0419 20.195C29.8863 20.6351 29.8668 20.8152 29.8924 21.579C29.968 23.8396 29.9569 24.0258 29.72 24.4683C29.447 24.9784 28.9515 25.4684 28.4857 25.6888C28.2888 25.782 27.6958 25.9455 27.1677 26.0522C25.8742 26.3137 25.3322 26.5766 24.5876 27.3039C24.1463 27.735 23.9032 28.0574 23.6151 28.5938C23.1725 29.4177 22.7505 29.8779 22.1575 30.1832C21.7755 30.3797 21.6677 30.3985 20.9189 30.3985H20.0987L19.2394 30.0015C18.2164 29.5288 17.8906 29.4478 17.0132 29.4478C16.1357 29.4478 15.8099 29.5288 14.7869 30.0015L13.9276 30.3985H13.1074C12.3593 30.3985 12.2506 30.3796 11.8703 30.1839C11.2661 29.8727 10.8551 29.4267 10.4148 28.6041C10.1328 28.0769 9.87656 27.7302 9.47747 27.3356C8.75101 26.6171 8.12344 26.3079 6.8829 26.0572C6.36829 25.9531 5.78165 25.7919 5.57925 25.6989C5.09557 25.4767 4.57861 24.9772 4.307 24.4697C4.06985 24.0265 4.05454 23.7759 4.13289 21.6172C4.18241 20.2511 3.83644 19.4255 2.72792 18.2648C1.83921 17.3343 1.66369 16.9615 1.66369 16.0048C1.66369 15.056 1.83906 14.6798 2.70871 13.7622C3.42103 13.0107 3.72497 12.5444 3.98486 11.8051C4.13453 11.3791 4.15546 11.1842 4.1325 10.4306C4.05837 7.99664 4.05829 7.99748 4.35317 7.46587C4.84138 6.58568 5.39467 6.25329 6.86658 5.95587C8.64227 5.59714 9.60253 4.90616 10.4125 3.40433C10.8563 2.58156 11.2677 2.136 11.8703 1.82576C12.2506 1.62997 12.3593 1.61111 13.1074 1.61111H13.9276L14.7869 2.0081C15.8099 2.48084 16.1357 2.56186 17.0132 2.56186C17.882 2.56186 18.2113 2.48168 19.2204 2.02444C20.4606 1.46244 21.3046 1.41212 22.1839 1.84767ZM12.7792 7.44732C10.9687 8.01321 9.96983 9.83659 10.5215 11.569C11.282 13.9579 14.3053 14.7152 16.1323 12.9745C16.612 12.5176 16.9743 11.83 17.1092 11.1211C17.2824 10.2111 16.9494 9.12065 16.2762 8.39241C15.412 7.4577 13.9823 7.07125 12.7792 7.44732ZM14.2661 8.94487C15.0423 9.17021 15.529 9.80735 15.529 10.5981C15.529 11.6211 14.8032 12.3396 13.7698 12.3396C12.7332 12.3396 11.9876 11.621 11.9871 10.6215C11.9866 9.78253 12.5399 9.09858 13.3808 8.89844C13.7393 8.81315 13.8284 8.81781 14.2661 8.94487ZM16.4474 15.4517L10.4516 21.3129V21.6427C10.4516 22.1085 10.7692 22.419 11.2457 22.419H11.583L17.579 16.5579L23.5748 10.6967V10.3669C23.5748 9.90112 23.2572 9.59064 22.7807 9.59064H22.4433L16.4474 15.4517ZM19.4738 18.1742C17.768 18.5881 16.6314 20.2456 16.9211 21.8968C17.3873 24.5544 20.5806 25.6335 22.5769 23.8081C24.5317 22.0208 23.6662 18.7827 21.074 18.1855C20.4755 18.0476 20.0093 18.0444 19.4738 18.1742ZM20.9409 19.773C22.3454 20.3483 22.427 22.2806 21.0751 22.9501C20.6384 23.1665 20.2534 23.2042 19.8015 23.0749C18.9892 22.8425 18.4973 22.2107 18.4973 21.3997C18.4973 20.6807 18.8321 20.1318 19.4544 19.8307C19.8432 19.6426 20.5551 19.615 20.9409 19.773Z" fill="black"/>
</svg>
