<svg width="26" height="26" viewBox="0 0 26 26" fill="none" xmlns="http://www.w3.org/2000/svg">
<path d="M15.8656 5.58713C16.9879 5.80567 18.0193 6.35348 18.8278 7.16044C19.6363 7.96741 20.1851 8.99682 20.4041 10.1169M15.8656 1C18.1972 1.25853 20.3714 2.30065 22.0313 3.95527C23.6912 5.60988 24.738 7.77864 25 10.1055M23.851 19.2568V22.6971C23.8523 23.0165 23.7868 23.3326 23.6586 23.6253C23.5304 23.9179 23.3424 24.1806 23.1066 24.3965C22.8708 24.6124 22.5924 24.7768 22.2893 24.8791C21.9861 24.9814 21.6649 25.0194 21.3462 24.9907C17.8106 24.6073 14.4145 23.4014 11.4306 21.4701C8.65443 19.7094 6.30076 17.3602 4.53669 14.5894C2.59489 11.5977 1.38647 8.19147 1.00933 4.64677C0.980614 4.32965 1.01837 4.01003 1.1202 3.70827C1.22203 3.40651 1.3857 3.12922 1.60078 2.89405C1.81586 2.65888 2.07765 2.47099 2.36948 2.34233C2.6613 2.21368 2.97677 2.14708 3.29579 2.14678H6.74273C7.30034 2.1413 7.84091 2.33839 8.2637 2.70129C8.68649 3.06419 8.96265 3.56816 9.04069 4.11925C9.18617 5.22024 9.45599 6.30126 9.84497 7.34171C9.99956 7.75217 10.033 8.19826 9.94138 8.62711C9.84974 9.05597 9.63685 9.44962 9.32793 9.76142L7.86873 11.2178C9.50436 14.0889 11.8861 16.466 14.7626 18.0985L16.2218 16.6421C16.5342 16.3338 16.9286 16.1213 17.3583 16.0298C17.788 15.9384 18.2349 15.9718 18.6461 16.1261C19.6886 16.5143 20.7717 16.7836 21.8748 16.9288C22.4329 17.0074 22.9426 17.288 23.307 17.7172C23.6714 18.1464 23.865 18.6944 23.851 19.2568Z" stroke="#636365" stroke-linecap="round" stroke-linejoin="round"/>
</svg>
