<svg width="35" height="40" viewBox="0 0 35 40" fill="none" xmlns="http://www.w3.org/2000/svg">
<path d="M32.47 18.3307C33.668 19.1211 33.668 20.8789 32.47 21.6694L11.8515 35.2741C10.5218 36.1515 8.75 35.1978 8.75 33.6047L8.74999 6.3953C8.74999 4.80221 10.5218 3.84856 11.8515 4.72595L32.47 18.3307Z" fill="#1C1C1C"/>
<path d="M16.6413 16.5255L16.6413 16.5256L16.6486 16.5255C16.6592 16.5255 16.6684 16.5277 16.6752 16.5307C16.6785 16.5322 16.6809 16.5337 16.6825 16.5348C16.6837 16.5357 16.6844 16.5364 16.6846 16.5366C16.6846 16.5366 16.6847 16.5367 16.6847 16.5367L19.3523 19.613L16.5948 22.6847L16.5944 22.6853C16.5942 22.6855 16.5919 22.6879 16.5865 22.6905C16.581 22.6932 16.5735 22.6956 16.5643 22.6963C16.5587 22.6968 16.5535 22.6966 16.5488 22.696L19.005 19.962L19.3152 19.6167L19.0109 19.2662L16.6318 16.526C16.6348 16.5257 16.638 16.5255 16.6413 16.5255ZM16.647 16C16.73 15.9997 16.812 16.0167 16.887 16.0498C16.962 16.0828 17.0281 16.131 17.0804 16.1908L16.647 16Z" fill="white" stroke="white" stroke-width="1.05112"/>
</svg>
