<svg width="38" height="33" viewBox="0 0 38 33" fill="none" xmlns="http://www.w3.org/2000/svg">
<path fill-rule="evenodd" clip-rule="evenodd" d="M18.5286 0.0382118C17.3917 0.23659 16.4228 1.12577 16.1336 2.23633C15.9909 2.78419 15.9915 3.23883 16.1356 3.75122C16.1984 3.97438 16.2568 4.19354 16.2655 4.23807C16.2742 4.28268 13.8367 6.60688 10.849 9.40303L5.41672 14.4868L4.42901 14.5327C3.85937 14.5592 3.26844 14.6305 3.03301 14.7011C1.51233 15.1576 0.315905 16.4569 0.0653392 17.924C0.00856121 18.2569 -0.0101421 20.1668 0.00507289 24.0839L0.0271161 29.7614L0.225505 30.2719C0.748605 31.6183 1.87645 32.5926 3.24832 32.8834C3.98933 33.0405 34.0763 33.0381 34.8181 32.8809C36.2788 32.5714 37.529 31.3386 37.8764 29.8651C38.0365 29.1859 38.0432 18.5192 37.884 17.7682C37.5799 16.3331 36.5081 15.1639 35.0959 14.7263C34.769 14.6251 34.2971 14.5624 33.6319 14.5321L32.6504 14.4874L27.7314 9.88818C25.0261 7.35854 22.5822 5.0681 22.3007 4.79825L21.7888 4.30769L21.9111 3.84911C22.2872 2.43738 21.6847 1.00754 20.4375 0.352366C19.8642 0.0511997 19.1384 -0.0682133 18.5286 0.0382118ZM19.9408 1.6308C20.4218 1.95253 20.6608 2.41111 20.6576 3.00669C20.6561 3.30592 20.6094 3.57421 20.5347 3.71329C19.9581 4.78615 18.5613 4.95514 17.7832 4.04615C17.0732 3.21672 17.3537 1.98162 18.3594 1.50879C18.8113 1.29631 19.5228 1.35123 19.9408 1.6308ZM17.4403 5.53618C18.2523 6.11432 19.7519 6.12827 20.5815 5.56534C20.736 5.46055 20.8871 5.38463 20.9174 5.39673C20.9477 5.40882 23.149 7.45591 25.8092 9.94584L30.6459 14.473L24.861 14.492C21.6794 14.5025 16.4538 14.5025 13.2487 14.492L7.42132 14.473L12.2807 9.92729C14.9534 7.42719 17.1588 5.38159 17.1816 5.38159C17.2045 5.38159 17.3209 5.45113 17.4403 5.53618ZM35.0362 16.1555C35.8495 16.5366 36.4284 17.3166 36.5768 18.2311C36.6757 18.8412 36.6807 28.7054 36.5824 29.306C36.3887 30.4883 35.4912 31.3878 34.3125 31.5808C33.713 31.679 4.26743 31.679 3.66796 31.5808C2.48928 31.3878 1.59174 30.4883 1.3981 29.306C1.29961 28.7049 1.30473 18.8411 1.40382 18.2305C1.57333 17.1858 2.22751 16.3962 3.20372 16.058C3.57133 15.9307 4.32688 15.9251 19.1016 15.9408L34.6135 15.9573L35.0362 16.1555ZM8.41816 20.7608C8.31864 20.9028 8.3026 21.3076 8.3026 23.684C8.3026 26.2066 8.31374 26.4561 8.43323 26.6037C8.59496 26.8034 9.08095 26.8753 9.34168 26.738C9.52419 26.6419 9.52782 26.6222 9.56434 25.5291L9.60145 24.4179L9.89833 24.3978L10.1952 24.3778L10.8111 25.5661C11.1498 26.2195 11.4894 26.7877 11.5657 26.8286C11.8879 27.001 12.6073 26.5863 12.6073 26.2281C12.6073 26.1484 12.3736 25.6556 12.0878 25.1332C11.8021 24.6107 11.5683 24.1609 11.5683 24.1336C11.5683 24.1062 11.6109 24.0839 11.663 24.0839C11.8321 24.0839 12.2403 23.6484 12.3913 23.3069C12.5605 22.9244 12.5923 22.2043 12.4614 21.7181C12.4103 21.5285 12.2625 21.29 12.088 21.1154C11.6549 20.6824 11.2699 20.5958 9.77772 20.5958C8.57633 20.5958 8.52972 20.6014 8.41816 20.7608ZM14.2873 20.7496L14.0917 20.9034V23.6811C14.0917 26.3599 14.097 26.4641 14.2402 26.6072C14.3804 26.7474 14.4875 26.7557 16.1673 26.7557C17.8498 26.7557 17.9501 26.7479 18.0228 26.6121C18.1325 26.407 18.1176 25.9924 17.9944 25.8236C17.8989 25.6928 17.7758 25.6774 16.6585 25.656L15.4277 25.6324V24.9324V24.2323H16.1328C16.7514 24.2323 16.8571 24.2131 16.9947 24.0755C17.1186 23.9517 17.1422 23.8622 17.1077 23.6491C17.0437 23.2551 16.9095 23.1933 16.1186 23.1933H15.4277V22.4883V21.7832H16.6152C17.7038 21.7832 17.8151 21.7708 17.9512 21.6348C18.1487 21.4372 18.1562 20.8927 17.9638 20.7186C17.846 20.612 17.6077 20.5958 16.1555 20.5958C14.5757 20.5958 14.472 20.6043 14.2873 20.7496ZM19.83 20.6665C19.7409 20.7047 19.6323 20.8023 19.5888 20.8836C19.4897 21.0688 19.4795 26.221 19.5778 26.4795C19.6663 26.7124 20.0318 26.861 20.3779 26.8048C20.8678 26.7253 20.8787 26.6907 20.9199 25.0725L20.9571 23.6169L21.616 24.8338C22.5495 26.5574 22.624 26.6685 22.912 26.7638C23.2032 26.8602 23.5643 26.8036 23.7539 26.632C23.8796 26.5183 23.8887 26.3208 23.8887 23.7066C23.8887 20.6586 23.8985 20.7311 23.4726 20.6243C23.2556 20.5698 22.8672 20.6372 22.7268 20.7537C22.6494 20.818 22.6265 21.1717 22.6246 22.3303C22.6227 23.5597 22.6055 23.802 22.5273 23.6992C22.4751 23.6306 22.1233 22.9915 21.7456 22.2791C21.3679 21.5666 20.9785 20.9083 20.8805 20.8162C20.6821 20.6298 20.1072 20.5479 19.83 20.6665ZM25.4145 20.7608C25.2488 20.9971 25.266 21.4535 25.4473 21.6348C25.5725 21.7599 25.6947 21.7832 26.2266 21.7832H26.8575V24.1466C26.8575 26.3637 26.8661 26.5178 26.9967 26.636C27.2026 26.8223 27.6002 26.8627 27.9187 26.7296L28.1935 26.6148V24.199V21.7832H28.8189C29.4063 21.7832 29.4538 21.7713 29.5982 21.5877C29.7807 21.3558 29.7976 20.9905 29.6365 20.7608C29.522 20.5973 29.5034 20.5958 27.5255 20.5958C25.5475 20.5958 25.529 20.5973 25.4145 20.7608ZM10.97 21.9131C11.1762 22.0802 11.2787 22.53 11.1865 22.8637C11.0805 23.2477 10.8333 23.3717 10.1663 23.3756L9.60145 23.3789L9.58037 22.581L9.55929 21.7832H10.1844C10.6693 21.7832 10.8456 21.8124 10.97 21.9131Z" fill="white"/>
</svg>
