<svg width="37" height="39" viewBox="0 0 37 39" fill="none" xmlns="http://www.w3.org/2000/svg">
<path d="M16.6637 2.45937C17.2062 2.1581 17.8165 2 18.4371 2C19.0576 2 19.668 2.1581 20.2105 2.45937L33.9354 10.0825C34.22 10.2408 34.457 10.4722 34.6221 10.7528C34.7872 11.0335 34.8742 11.3532 34.8742 11.6788V26.7187C34.874 27.37 34.6997 28.0095 34.3693 28.5708C34.0388 29.1321 33.5643 29.5949 32.9949 29.9111L20.2105 37.0156C19.668 37.3169 19.0576 37.475 18.4371 37.475C17.8165 37.475 17.2062 37.3169 16.6637 37.0156L3.87931 29.9111C3.31014 29.595 2.83579 29.1326 2.50538 28.5716C2.17496 28.0106 2.00048 27.3716 2 26.7205V11.6788C1.99999 11.3532 2.08701 11.0335 2.25206 10.7528C2.41711 10.4722 2.65419 10.2408 2.93874 10.0825L16.6655 2.45937H16.6637Z" stroke="black" stroke-width="2.5" stroke-linecap="round" stroke-linejoin="round"/>
<path d="M18.4371 19.7364V37.9999M2 10.6047L18.4371 19.7364L2 10.6047ZM18.4371 19.7364L34.8742 10.6047L18.4371 19.7364Z" stroke="black" stroke-width="2.5" stroke-linejoin="round"/>
<path d="M7.47656 20.3357L12.9556 23.3893M10.2161 15.1708L26.6532 6.03906L10.2161 15.1708Z" stroke="black" stroke-width="2.5" stroke-linecap="round" stroke-linejoin="round"/>
</svg>
