<svg width="34" height="38" viewBox="0 0 34 38" fill="none" xmlns="http://www.w3.org/2000/svg">
<path fill-rule="evenodd" clip-rule="evenodd" d="M15.7895 0.196332C16.5752 -0.065444 17.4248 -0.065444 18.2106 0.196332L29.783 4.05157C30.7687 4.37994 31.5706 5.10757 31.9926 6.05641C37.038 17.4022 32.2618 30.7075 21.1503 36.26L18.2655 37.7016C17.4688 38.0995 16.5312 38.0995 15.7346 37.7016L12.8497 36.26C1.7382 30.7075 -3.03804 17.4022 2.00747 6.05641C2.42942 5.10757 3.23135 4.37994 4.21698 4.05157L15.7895 0.196332ZM16.827 3.30737C16.8832 3.28865 16.9416 3.27932 17 3.27932V19.0111H3.59828C2.91265 15.2086 3.32344 11.1716 5.0059 7.38827C5.05339 7.28147 5.14364 7.19955 5.25459 7.16261L16.827 3.30737ZM17 34.6676L19.683 33.3268C25.5202 30.4099 29.3216 25.0015 30.4018 19.0111H17V34.6676Z" fill="#1C1C1C"/>
</svg>
