<svg width="39" height="29" viewBox="0 0 39 29" fill="none" xmlns="http://www.w3.org/2000/svg">
<path d="M31.2 5.8H27.3V3.86667C27.3 2.84116 26.8891 1.85766 26.1577 1.13252C25.4263 0.40738 24.4343 0 23.4 0H3.9C2.86566 0 1.87368 0.40738 1.14228 1.13252C0.410892 1.85766 0 2.84116 0 3.86667V23.2H3.9C3.9 23.9617 4.05132 24.7159 4.34531 25.4196C4.6393 26.1233 5.0702 26.7626 5.61343 27.3012C6.15665 27.8398 6.80155 28.267 7.5113 28.5585C8.22106 28.85 8.98177 29 9.75 29C10.5182 29 11.2789 28.85 11.9887 28.5585C12.6985 28.267 13.3434 27.8398 13.8866 27.3012C14.4298 26.7626 14.8607 26.1233 15.1547 25.4196C15.4487 24.7159 15.6 23.9617 15.6 23.2H23.4C23.4 24.7383 24.0163 26.2135 25.1134 27.3012C26.2105 28.3889 27.6985 29 29.25 29C30.8015 29 32.2895 28.3889 33.3866 27.3012C34.4837 26.2135 35.1 24.7383 35.1 23.2H39V13.5333L31.2 5.8ZM9.75 26.1C9.36576 26.0999 8.9853 26.0247 8.63035 25.8788C8.27541 25.7329 7.95292 25.5191 7.68131 25.2496C7.4097 24.9802 7.19428 24.6603 7.04735 24.3083C6.90043 23.9563 6.82487 23.579 6.825 23.1981C6.82513 22.8171 6.90094 22.4399 7.0481 22.088C7.19526 21.7361 7.4109 21.4163 7.68269 21.1471C7.95448 20.8778 8.27711 20.6642 8.63215 20.5185C8.9872 20.3728 9.36771 20.2979 9.75195 20.2981C10.528 20.2983 11.2721 20.6042 11.8206 21.1484C12.3692 21.6926 12.6772 22.4306 12.677 23.2C12.6767 23.9694 12.3682 24.7072 11.8193 25.251C11.2704 25.7949 10.526 26.1003 9.75 26.1ZM3.9 17.4V3.86667H23.4V17.4H3.9ZM29.25 26.1C28.8658 26.0999 28.4853 26.0247 28.1304 25.8788C27.7754 25.7329 27.4529 25.5191 27.1813 25.2496C26.9097 24.9802 26.6943 24.6603 26.5474 24.3083C26.4004 23.9563 26.3249 23.579 26.325 23.1981C26.3251 22.8171 26.4009 22.4399 26.5481 22.088C26.6953 21.7361 26.9109 21.4163 27.1827 21.1471C27.4545 20.8778 27.7771 20.6642 28.1322 20.5185C28.4872 20.3728 28.8677 20.2979 29.2519 20.2981C30.028 20.2983 30.7721 20.6042 31.3206 21.1484C31.8692 21.6926 32.1772 22.4306 32.1769 23.2C32.1767 23.9694 31.8682 24.7072 31.3193 25.251C30.7704 25.7949 30.026 26.1003 29.25 26.1Z" fill="#1C1C1C"/>
</svg>
