<svg width="21" height="20" viewBox="0 0 21 20" fill="none" xmlns="http://www.w3.org/2000/svg">
<path fill-rule="evenodd" clip-rule="evenodd" d="M9.86428 0.922289C9.62539 1.0117 9.44599 1.14273 9.33247 1.31066C9.27255 1.39933 8.71222 2.67056 8.08724 4.13565C6.96127 6.77531 6.94992 6.79957 6.83063 6.81984C6.76443 6.83112 5.43712 6.95393 3.88108 7.09279C1.20193 7.33188 1.04121 7.35048 0.850217 7.44322C0.373056 7.67487 0.144048 8.24559 0.330308 8.73883C0.374645 8.85618 0.459249 9.00442 0.518312 9.06826C0.577376 9.13209 1.59913 10.0373 2.7889 11.08C4.80071 12.843 4.95031 12.9826 4.92682 13.0759C4.91291 13.131 4.62124 14.4057 4.27863 15.9084C3.6311 18.7488 3.60087 18.9284 3.7216 19.2174C3.94952 19.7629 4.58508 20.0279 5.10452 19.794C5.19901 19.7515 6.37292 19.0604 7.71321 18.2583C9.05354 17.4561 10.1635 16.7998 10.1799 16.7998C10.1962 16.7998 11.3454 17.4786 12.7338 18.3083C14.5957 19.421 15.3082 19.8275 15.4493 19.8578C15.9343 19.9618 16.4378 19.692 16.6337 19.2233C16.7515 18.9414 16.714 18.7211 16.0504 15.7995L15.411 12.984L15.4982 12.8999C15.5461 12.8537 16.5354 11.9837 17.6966 10.9666C18.8578 9.94952 19.8483 9.06271 19.8977 8.99582C20.2717 8.4894 20.0783 7.71982 19.5076 7.44346C19.3169 7.35114 19.1507 7.33188 16.4767 7.09202C14.9207 6.95242 13.5934 6.82949 13.5272 6.81879C13.4078 6.79957 13.398 6.77864 12.2716 4.14115C11.6472 2.67913 11.0823 1.4034 11.0161 1.30624C10.7836 0.964688 10.2374 0.782613 9.86428 0.922289Z" fill="#FFDC64"/>
</svg>
