<svg width="88" height="71" viewBox="0 0 88 71" fill="none" xmlns="http://www.w3.org/2000/svg">
<path fill-rule="evenodd" clip-rule="evenodd" d="M30.001 14.0195L15.7309 28.0389L15.8295 28.7609C15.9247 29.4585 16.6404 30.1827 36.9592 50.1445C57.2778 70.1065 58.015 70.8096 58.725 70.9031L59.4599 71L73.7299 56.9805L88 42.9611L87.9012 42.2374C87.8067 41.5451 87.4366 41.1544 79.41 33.2735C71.2844 25.2957 70.9967 25.0335 70.3654 25.0335C69.5239 25.0335 69.1179 25.2565 68.7759 25.9059C68.2106 26.9799 68.2472 27.0252 75.1939 33.8541L81.6766 40.2268H66.0315H50.3865L49.4976 39.7916C48.5103 39.3083 47.8463 38.6259 47.375 37.6102C47.0792 36.9727 47.0615 36.0751 47.0579 21.5758L47.0542 6.21676L53.3743 12.4177C59.4401 18.369 59.7206 18.6185 60.3397 18.6185C60.6943 18.6185 61.1714 18.4984 61.3995 18.3515C61.9681 17.9855 62.2694 17.0543 62.0145 16.45C61.9077 16.1966 58.2021 12.4354 53.7798 8.09145C46.1074 0.555062 45.7058 0.189073 45.0052 0.096731L44.271 0L30.001 14.0195ZM43.6175 16.2551V26.8905H32.6637H21.71L32.5344 16.2551C38.4878 10.4057 43.417 5.61983 43.4881 5.61983C43.5593 5.61983 43.6175 10.4057 43.6175 16.2551ZM0.850245 17.6725C-0.301373 18.2995 -0.26357 20.085 0.912448 20.6114C1.5307 20.8881 7.34893 20.8881 7.96718 20.6114C8.45965 20.3909 8.90745 19.6831 8.90745 19.125C8.90745 18.5669 8.45965 17.8591 7.96718 17.6386C7.31027 17.3445 1.40079 17.3727 0.850245 17.6725ZM12.0618 17.5996C11.1021 17.9921 10.8292 19.425 11.5559 20.255L11.9707 20.7287H16.0385H20.1063L20.5211 20.255C21.0833 19.6129 21.0835 18.6375 20.5212 17.9949L20.1069 17.5213L16.2684 17.4851C14.1573 17.4652 12.2644 17.5169 12.0618 17.5996ZM64.8551 20.5645C64.1504 20.9256 63.9054 21.3062 63.8992 22.05C63.8832 23.9284 66.6262 24.3135 67.1762 22.5101C67.4147 21.7278 67.0667 20.9497 66.305 20.5628C65.677 20.2437 65.4807 20.2439 64.8551 20.5645ZM43.6232 34.0651C43.6967 37.042 43.7744 37.9284 44.0148 38.5314C44.8638 40.6615 46.6132 42.3775 48.7914 43.2168C49.3918 43.4481 50.3169 43.5258 53.326 43.5975L57.1063 43.6875L57.1505 54.365C57.1749 60.2377 57.1364 65.0425 57.0649 65.0425C56.8948 65.0425 21.7948 30.5596 21.7948 30.3923C21.7948 30.3219 26.6855 30.2838 32.6632 30.3078L43.5316 30.3512L43.6232 34.0651ZM0.850245 35.398C0.037136 35.8407 -0.233843 36.8134 0.217044 37.6701C0.654357 38.501 0.942347 38.5387 6.85079 38.5387H12.3386L12.8804 38.0633C13.3314 37.6672 13.422 37.4645 13.422 36.8505C13.422 36.2365 13.3314 36.0338 12.8804 35.6378L12.3386 35.1624L6.79976 35.1683C2.53265 35.173 1.16659 35.2257 0.850245 35.398ZM15.7661 35.6325C15.2826 36.0569 15.187 36.2576 15.187 36.8505C15.187 37.4434 15.2826 37.6441 15.7661 38.0685C16.2682 38.5093 16.4385 38.5643 17.0506 38.4836C17.9749 38.3619 18.53 37.7489 18.53 36.8505C18.53 35.9521 17.9749 35.3391 17.0506 35.2174C16.4385 35.1367 16.2682 35.1917 15.7661 35.6325ZM82.2797 43.7302C82.2797 43.8001 77.4083 48.6427 71.4543 54.4916L60.6289 65.1259V54.3645V43.6031H71.4543C77.4083 43.6031 82.2797 43.6603 82.2797 43.7302ZM12.3078 44.9364C11.8466 45.3412 11.7504 45.5478 11.7504 46.1353C11.7504 46.7228 11.8466 46.9294 12.3078 47.3342L12.8651 47.8235H18.1116C22.4554 47.8235 23.4448 47.7796 23.8603 47.5685C24.4656 47.261 24.716 46.8416 24.716 46.1353C24.716 45.429 24.4656 45.0097 23.8603 44.7021C23.4448 44.4911 22.4554 44.4472 18.1116 44.4472H12.8651L12.3078 44.9364ZM5.48971 55.487C4.33809 56.1139 4.37589 57.8995 5.55191 58.4258C5.88802 58.5763 9.16399 58.6276 18.4441 58.6276C27.7243 58.6276 31.0002 58.5763 31.3363 58.4258C31.8288 58.2054 32.2766 57.4975 32.2766 56.9394C32.2766 56.3813 31.8288 55.6735 31.3363 55.453C30.6466 55.1443 6.05968 55.1765 5.48971 55.487Z" fill="white"/>
</svg>
