<svg width="31" height="28" viewBox="0 0 31 28" fill="none" xmlns="http://www.w3.org/2000/svg">
<path fill-rule="evenodd" clip-rule="evenodd" d="M11.9498 0.0357787C11.8784 0.0500831 11.7694 0.117441 11.7076 0.185462C11.6004 0.30358 11.5946 0.546574 11.5778 5.62924C11.5682 8.55531 11.5765 11.0392 11.5963 11.1489C11.6162 11.2586 11.6854 11.4012 11.7501 11.4658C11.8654 11.5807 12.0195 11.5831 19.2853 11.5831C26.5901 11.5831 26.7045 11.5813 26.8222 11.4639C26.888 11.3983 26.9569 11.2829 26.9754 11.2074C26.994 11.1319 27.0015 8.64675 26.9921 5.68495L26.9751 0.299777L26.8373 0.162346C26.7032 0.0285359 26.6625 0.0243713 25.3161 0.0057816C24.1909 -0.00979033 23.8922 0.00354842 23.7152 0.0772435C23.4787 0.175745 23.3914 0.36466 23.4588 0.632401C23.5217 0.882336 23.8065 0.960377 24.6554 0.960377H25.3973L25.0073 1.35269L24.6172 1.74501H19.2853H13.9533L13.5644 1.35384L13.1754 0.96267L17.7039 0.946435L22.2325 0.930199L22.3786 0.760839C22.563 0.547117 22.563 0.407936 22.3786 0.194214L22.2325 0.0248542L17.1561 0.0173096C14.3642 0.0131451 12.0213 0.0214742 11.9498 0.0357787ZM12.941 1.99977L13.3211 2.37525V5.78876V9.20227L12.8972 9.62151L12.4734 10.0407V5.83252C12.4734 3.51797 12.493 1.6243 12.5171 1.6243C12.5412 1.6243 12.732 1.79329 12.941 1.99977ZM26.0972 5.83252V10.0407L25.6733 9.62151L25.2495 9.20227V5.79214V2.38201L25.6261 2.00315C25.8333 1.7948 26.0241 1.6243 26.05 1.6243C26.076 1.6243 26.0972 3.51797 26.0972 5.83252ZM1.8093 1.9265C1.75541 1.95789 1.68124 2.05892 1.64448 2.15097C1.57061 2.3362 0 9.17203 0 9.30844C0 9.35552 0.0564934 9.46555 0.125521 9.553L0.250981 9.71204H2.00258H3.75412V17.5584V25.4047H3.55333C2.39349 25.4047 1.50407 26.0953 1.3427 27.1212C1.27737 27.5363 1.30758 27.7177 1.46586 27.8606C1.5777 27.9616 1.77309 27.9712 4.04803 27.9882C5.40163 27.9982 6.59925 27.9899 6.70933 27.9697C7.02026 27.9125 7.14493 27.7487 7.14493 27.3971C7.14493 26.8277 6.80355 26.1745 6.32823 25.8342C5.97534 25.5816 5.64013 25.4694 5.10336 25.4241L4.66195 25.3869L4.67726 17.5646L4.69264 9.74222H5.26787H5.8431L5.85884 12.4091L5.87465 15.076L6.03353 15.2006C6.12096 15.2691 6.22838 15.3252 6.27228 15.3252C6.43237 15.3252 6.64878 15.1876 6.71442 15.0441C6.76031 14.9436 6.78163 14.0759 6.78163 12.3045V9.71204H7.47123C8.2556 9.71204 8.43725 9.63708 8.43592 9.31405C8.43556 9.2176 8.0751 7.56336 7.63496 5.63799C6.92059 2.51292 6.8185 2.12278 6.68372 2.00152L6.53265 1.86572L4.21999 1.86753C2.87953 1.86862 1.8661 1.89336 1.8093 1.9265ZM24.327 4.36079C24.3359 5.28491 24.3212 6.03181 24.2945 6.02059C24.2678 6.0093 23.9507 5.68006 23.59 5.28883C23.2293 4.89754 22.8489 4.53226 22.7446 4.47704C22.4761 4.33484 21.8904 4.33979 21.5932 4.48681C21.4368 4.56419 20.9314 5.07505 20.0823 6.01419C18.8648 7.36068 18.8022 7.41983 18.7128 7.30696C18.3051 6.79176 17.1832 5.63419 17.0019 5.54154C16.7343 5.40477 16.2496 5.39065 15.9601 5.51124C15.8362 5.56285 15.4662 5.91587 15.0085 6.41924L14.2596 7.2428L14.2437 5.02223C14.2349 3.80099 14.2409 2.7675 14.257 2.72568C14.2804 2.6652 15.3126 2.65283 19.2986 2.66508L24.3109 2.68053L24.327 4.36079ZM6.05503 2.80559C6.05503 2.8246 6.35475 4.14604 6.72108 5.74216C7.08741 7.33823 7.38713 8.68073 7.38713 8.7254C7.38713 8.79251 6.83207 8.8067 4.20419 8.8067C1.20144 8.8067 1.02294 8.80072 1.05188 8.70107C1.06871 8.64295 1.35808 7.38681 1.69486 5.90959C2.03158 4.43237 2.33403 3.12192 2.36691 2.9974L2.42667 2.77107H4.24088C5.23863 2.77107 6.05503 2.78664 6.05503 2.80559ZM18.22 3.33401C18.0732 3.41121 17.8714 3.5901 17.7715 3.73152C17.6075 3.96365 17.5898 4.03396 17.5898 4.45633C17.5898 4.87273 17.6089 4.95138 17.7632 5.17337C17.9826 5.48903 18.444 5.72907 18.8279 5.7272C19.5058 5.72394 20.102 5.13148 20.102 4.46104C20.102 3.52208 19.0546 2.8948 18.22 3.33401ZM19.1002 4.23308C19.227 4.4136 19.2188 4.55743 19.0733 4.70247C18.8388 4.93629 18.4678 4.78528 18.4678 4.45597C18.4678 4.11423 18.9077 3.95912 19.1002 4.23308ZM22.3954 5.3513C22.4649 5.40942 22.9301 5.90507 23.4293 6.4528L24.3368 7.44868L24.339 8.18804L24.3412 8.92741H22.2585H20.1757L19.8039 8.50932L19.432 8.09123L20.5899 6.80425C21.2269 6.0964 21.8152 5.45614 21.8975 5.38148C22.0772 5.21833 22.2256 5.20934 22.3954 5.3513ZM17.796 7.64484L18.9566 8.92741H16.5929H14.2293V8.77917C14.2293 8.67222 14.5191 8.31002 15.27 7.47856C16.1816 6.46904 16.3308 6.32835 16.4731 6.34422C16.598 6.3581 16.9036 6.65862 17.796 7.64484ZM24.977 10.2552L25.3976 10.6777H19.2853H13.1729L13.5935 10.2552L14.0141 9.83275H19.2853H24.5564L24.977 10.2552ZM11.46 14.5129C10.3964 14.7984 9.58638 15.6699 9.39038 16.7396C9.35429 16.9365 9.32474 17.4941 9.32474 17.9785V18.8593L8.92892 19.0312C8.41812 19.253 8.03677 19.625 7.79197 20.1401L7.59906 20.546L7.58162 24.086L7.56424 27.6259L7.71265 27.7979L7.86106 27.9698H15.0467H22.2324L22.3786 27.8005C22.563 27.5867 22.563 27.4476 22.3786 27.2338L22.2325 27.0645L17.1107 27.0484L11.9889 27.0323V25.3433V23.6543H19.2853H26.5816V25.3443V27.0343H25.2475C23.7705 27.0343 23.5303 27.0784 23.4588 27.3623C23.3924 27.6259 23.479 27.8191 23.7056 27.9135C23.8775 27.985 24.4842 28 27.2115 28C29.3468 28 30.5678 27.9779 30.6749 27.9373C31.0088 27.8107 30.9977 27.9378 30.9998 24.218C31.0016 21.0074 30.9939 20.7427 30.8878 20.4033C30.6815 19.7425 30.1873 19.2282 29.5116 18.971L29.2458 18.8698L29.2423 17.8972C29.2383 16.771 29.1498 16.3276 28.8203 15.7814C28.5731 15.3715 28.1266 14.9511 27.7206 14.7461C27.0614 14.4131 27.1984 14.4198 21.1243 14.4198C18.0368 14.4198 15.4647 14.4375 15.4083 14.4591C15.2539 14.5181 15.1385 14.837 15.2068 15.0159C15.3285 15.3352 15.0611 15.3212 21.0756 15.3232C27.306 15.3254 27.0179 15.3072 27.5806 15.7339C27.8 15.9003 27.9418 16.0775 28.0953 16.3775L28.3072 16.7915L28.3282 17.8286L28.3491 18.8658L27.9849 18.9982C27.5161 19.1686 27.085 19.5554 26.8191 20.0443L26.6118 20.4253L26.592 21.5874L26.5723 22.7495L19.2957 22.7342L12.0192 22.7188L11.9876 21.5721C11.9585 20.5153 11.9444 20.4016 11.8086 20.1235C11.5787 19.6527 11.059 19.1702 10.6033 19.0046L10.2214 18.8658L10.2423 17.8286L10.2633 16.7915L10.4752 16.3775C10.6277 16.0797 10.7698 15.9012 10.9818 15.7418C11.4544 15.3861 11.7344 15.3252 12.896 15.3252C13.8304 15.3252 13.9228 15.3153 14.0698 15.2001C14.2783 15.0366 14.2873 14.7366 14.0892 14.551C13.9557 14.426 13.8976 14.42 12.8631 14.4238C12.1304 14.4265 11.6738 14.4554 11.46 14.5129ZM10.4352 19.9273C10.5708 20.002 10.7647 20.1809 10.8661 20.3248L11.0504 20.5865L11.0671 23.8104L11.0838 27.0343H9.78038H8.47703L8.4774 23.9712C8.47758 21.9811 8.50041 20.8267 8.54249 20.6755C8.57815 20.5475 8.71797 20.3232 8.85317 20.177C9.27006 19.7262 9.89215 19.628 10.4352 19.9273ZM29.1666 19.8218C29.5341 19.9306 29.9297 20.3226 30.028 20.6755C30.0701 20.8267 30.0929 21.9811 30.0931 23.9712L30.0935 27.0343H28.7916H27.4898V23.8847C27.4898 20.8072 27.4927 20.729 27.6171 20.4729C27.7592 20.1802 28.0412 19.9388 28.3828 19.8173C28.679 19.7119 28.7977 19.7126 29.1666 19.8218ZM5.57062 26.424C5.75924 26.526 6.04673 26.7886 6.1229 26.9287C6.17709 27.0283 6.0695 27.0343 4.23912 27.0343H2.29782L2.38429 26.8683C2.49727 26.6514 2.78543 26.4437 3.07129 26.373C3.42696 26.285 5.38746 26.3251 5.57062 26.424Z" fill="black"/>
</svg>
